<svg width="360" height="917" viewBox="0 0 360 917" fill="none" xmlns="http://www.w3.org/2000/svg">
<g clip-path="url(#clip0_8901_11)">
<rect width="360" height="917" fill="#3772FF"/>
<path d="M319.228 352.5C312.028 292.1 353.228 235 374.728 214V595.5C301.928 574.3 292.038 522.784 311.728 493.5C342.995 447 326.428 412.9 319.228 352.5Z" fill="#36D6AD"/>
<path d="M374.728 199C339.5 219 296.5 293.5 303.228 352.5C309.957 411.5 332.607 434.095 303.228 484.5C277 529.5 287.928 590.8 374.728 614M374.728 214C353.228 235 312.028 292.1 319.228 352.5C326.428 412.9 342.995 447 311.728 493.5C292.038 522.784 301.928 574.3 374.728 595.5V214Z" stroke="#36D6AD" stroke-width="2"/>
<path d="M-0.5 295C0.637588 241.391 14.4678 156.602 122.111 131.519C158.266 124.707 166.649 125.231 223.763 122.611C277.733 118.419 325.624 104.377 351.614 0" stroke="#36D6AD" stroke-width="2"/>
<path d="M333.275 0C326.045 36.2351 278.362 108.906 145.465 109.707C81.6337 111.505 8.52078 140.319 0.709914 237.389V273.517C-0.222722 260.536 -0.185294 248.514 0.709914 237.389V0H333.275Z" fill="#36D6AD"/>
<path d="M333.275 0C326.045 36.2351 278.362 108.906 145.465 109.707C74.3179 111.711 -8.36015 147.278 0.709914 273.517V0H333.275Z" stroke="#36D6AD"/>
</g>
<defs>
<clipPath id="clip0_8901_11">
<rect width="360" height="917" fill="white"/>
</clipPath>
</defs>
</svg>

